<svg width="18" height="19" viewBox="0 0 18 19" fill="none" xmlns="http://www.w3.org/2000/svg">
<path d="M8.10156 10.3984C8.33594 10.6328 8.64844 10.75 9 10.75C9.3125 10.75 9.625 10.6328 9.85938 10.3984L17.3594 2.89844C17.8672 2.42969 17.8672 1.60938 17.3594 1.14062C16.8906 0.632812 16.0703 0.632812 15.6016 1.14062L9 7.74219L2.35938 1.14062C1.89062 0.632812 1.07031 0.632812 0.601562 1.14062C0.09375 1.60938 0.09375 2.42969 0.601562 2.89844L8.10156 10.3984ZM15.6016 8.64062L9 15.2422L2.35938 8.64062C1.89062 8.13281 1.07031 8.13281 0.601562 8.64062C0.09375 9.10938 0.09375 9.92969 0.601562 10.3984L8.10156 17.8984C8.33594 18.1328 8.64844 18.25 9 18.25C9.3125 18.25 9.625 18.1328 9.85938 17.8984L17.3594 10.3984C17.8672 9.92969 17.8672 9.10938 17.3594 8.64062C16.8906 8.13281 16.0703 8.13281 15.6016 8.64062Z" fill="#B7473B"/>
</svg>
