<svg width="18" height="19" viewBox="0 0 18 19" fill="none" xmlns="http://www.w3.org/2000/svg">
<path d="M2.35938 10.3984L9 3.79688L15.6016 10.3984C15.8359 10.6328 16.1484 10.75 16.5 10.75C16.8125 10.75 17.125 10.6328 17.3594 10.3984C17.8672 9.92969 17.8672 9.10938 17.3594 8.64062L9.85938 1.14062C9.39062 0.632812 8.57031 0.632812 8.10156 1.14062L0.601562 8.64062C0.09375 9.10938 0.09375 9.92969 0.601562 10.3984C1.07031 10.9062 1.89062 10.9062 2.35938 10.3984ZM9.85938 8.64062C9.39062 8.13281 8.57031 8.13281 8.10156 8.64062L0.601562 16.1406C0.09375 16.6094 0.09375 17.4297 0.601562 17.8984C1.07031 18.4062 1.89062 18.4062 2.35938 17.8984L9 11.2969L15.6016 17.8984C15.8359 18.1328 16.1484 18.25 16.5 18.25C16.8125 18.25 17.125 18.1328 17.3594 17.8984C17.8672 17.4297 17.8672 16.6094 17.3594 16.1406L9.85938 8.64062Z" fill="white"/>
</svg>
