<svg width="21" height="21" viewBox="0 0 21 21" fill="none" xmlns="http://www.w3.org/2000/svg">
<path d="M5.96094 7.375C5.25781 7.375 4.71094 7.92188 4.71094 8.58594C4.71094 9.21094 5.25781 9.79688 5.96094 9.79688C6.625 9.79688 7.21094 9.21094 7.21094 8.58594C7.21094 7.92188 6.66406 7.375 5.96094 7.375ZM5.96094 9.25C5.60938 9.25 5.33594 8.9375 5.33594 8.625C5.33594 8.35156 5.60938 8.03906 5.96094 8.03906C6.27344 8.03906 6.58594 8.35156 6.58594 8.625C6.58594 8.9375 6.3125 9.25 5.96094 9.25ZM10.9609 7.375C10.2578 7.375 9.71094 7.92188 9.71094 8.58594C9.71094 9.21094 10.2578 9.79688 10.9609 9.79688C11.625 9.79688 12.2109 9.21094 12.2109 8.58594C12.2109 7.92188 11.6641 7.375 10.9609 7.375ZM10.9609 9.25C10.6094 9.25 10.3359 8.9375 10.3359 8.625C10.3359 8.35156 10.6094 8.03906 10.9609 8.03906C11.2734 8.03906 11.5859 8.35156 11.5859 8.625C11.5859 8.9375 11.3125 9.25 10.9609 9.25ZM15.9609 7.375C15.2578 7.375 14.7109 7.92188 14.7109 8.58594C14.7109 9.21094 15.2578 9.79688 15.9609 9.79688C16.625 9.79688 17.2109 9.21094 17.2109 8.58594C17.2109 7.92188 16.6641 7.375 15.9609 7.375ZM15.9609 9.25C15.6094 9.25 15.3359 8.9375 15.3359 8.625C15.3359 8.35156 15.6094 8.03906 15.9609 8.03906C16.2734 8.03906 16.5859 8.35156 16.5859 8.625C16.5859 8.9375 16.3125 9.25 15.9609 9.25ZM18.4609 0.5H3.46094C2.05469 0.5 0.960938 1.63281 0.960938 3V14.2109C0.960938 15.5781 2.05469 16.6719 3.46094 16.6719H7.21094V19.9141C7.21094 20.3047 7.44531 20.5 7.71875 20.5C7.79688 20.5 7.875 20.5 7.99219 20.4219L12.875 16.75H18.5C19.8672 16.75 21 15.6562 21 14.2891V3C20.9609 1.63281 19.8672 0.5 18.4609 0.5ZM20.3359 14.25C20.3359 15.2656 19.4766 16.0859 18.4609 16.0859H12.6016L7.83594 19.6797V16.0859H3.46094C2.40625 16.0859 1.58594 15.2266 1.58594 14.25V3C1.58594 1.98438 2.40625 1.16406 3.46094 1.16406H18.4609C19.4766 1.16406 20.3359 2.02344 20.3359 3V14.25Z" fill="#292929"/>
</svg>
