<svg width="20" height="27" viewBox="0 0 20 27" fill="none" xmlns="http://www.w3.org/2000/svg">
<path d="M0 9.5C0 8.13281 1.09375 7 2.5 7H17.5C18.8672 7 20 8.13281 20 9.5V19.5C20 20.9062 18.8672 22 17.5 22H2.5C1.09375 22 0 20.9062 0 19.5V9.5ZM0.625 9.5V10.6328L8.59375 17.0781C9.41406 17.7031 10.5469 17.7031 11.3672 17.0781L19.375 10.6328V9.5C19.375 8.48438 18.5156 7.625 17.5 7.625H2.46094C1.44531 7.625 0.585938 8.48438 0.585938 9.5H0.625ZM0.625 11.4141V19.5C0.625 20.5547 1.44531 21.375 2.5 21.375H17.5C18.5156 21.375 19.375 20.5547 19.375 19.5V11.4141L11.7578 17.5469C10.7031 18.4062 9.25781 18.4062 8.20312 17.5469L0.625 11.4141Z" fill="#292929"/>
</svg>
