<svg width="24" height="21" viewBox="0 0 24 21" fill="none" xmlns="http://www.w3.org/2000/svg">
<path d="M23.1328 10.2656C23.25 10.3828 23.25 10.5781 23.1328 10.7344C23.0547 10.8516 22.8594 10.8516 22.7031 10.7344L20.75 9.01562V18C20.75 19.4062 19.6172 20.5 18.25 20.5H5.75C4.34375 20.5 3.25 19.4062 3.25 18V9.01562L1.25781 10.7344C1.10156 10.8516 0.90625 10.8516 0.828125 10.7344C0.710938 10.5781 0.710938 10.3828 0.828125 10.2656L11.7656 0.617188C11.8828 0.5 12.0781 0.5 12.1953 0.617188L23.1328 10.2656ZM5.75 19.875H8.875V13.3125C8.875 12.8047 9.26562 12.375 9.8125 12.375H14.1875C14.6953 12.375 15.125 12.8047 15.125 13.3125V19.875H18.25C19.2656 19.875 20.125 19.0547 20.125 18V8.42969L12 1.24219L3.875 8.42969V18C3.875 19.0547 4.69531 19.875 5.75 19.875ZM9.5 19.875H14.5V13.3125C14.5 13.1562 14.3438 13 14.1875 13H9.8125C9.61719 13 9.5 13.1562 9.5 13.3125V19.875Z" fill="#292929"/>
</svg>
