<svg width="26" height="21" viewBox="0 0 26 21" fill="none" xmlns="http://www.w3.org/2000/svg">
<path d="M9.25 10.5C11.9844 10.5 14.25 8.27344 14.25 5.5C14.25 2.76562 11.9844 0.5 9.25 0.5C6.47656 0.5 4.25 2.76562 4.25 5.5C4.25 8.27344 6.47656 10.5 9.25 10.5ZM9.25 1.125C11.6328 1.125 13.625 3.11719 13.625 5.5C13.625 7.92188 11.6328 9.875 9.25 9.875C6.82812 9.875 4.875 7.92188 4.875 5.5C4.875 3.11719 6.82812 1.125 9.25 1.125ZM19.875 15.5C19.5234 15.5 19.25 15.8125 19.25 16.125C19.25 16.4766 19.5234 16.75 19.875 16.75C20.1875 16.75 20.5 16.4766 20.5 16.125C20.5 15.8125 20.1875 15.5 19.875 15.5ZM13 19.875H2.10156C1.55469 19.875 1.125 19.4844 1.125 18.9375C1.125 15.6953 3.89844 13 7.33594 13H11.125C11.75 13 12.3359 13.1172 12.8828 13.2734C13.0781 13.3125 13.2344 13.1953 13.2734 13.0391C13.3125 12.8828 13.2344 12.6875 13.0781 12.6484C12.4531 12.4922 11.7891 12.375 11.125 12.375H7.33594C3.54688 12.375 0.5 15.3438 0.5 18.9375C0.5 19.8359 1.20312 20.5 2.10156 20.5H13C13.1562 20.5 13.3125 20.3828 13.3125 20.1875C13.3125 20.0312 13.1562 19.875 13 19.875ZM23 11.75H22.375V8.625C22.375 7.25781 21.2422 6.125 19.875 6.125C18.4688 6.125 17.375 7.25781 17.375 8.625V11.75H16.75C15.3438 11.75 14.25 12.8828 14.25 14.25V18C14.25 19.4062 15.3438 20.5 16.75 20.5H23C24.3672 20.5 25.5 19.4062 25.5 18V14.25C25.5 12.8828 24.3672 11.75 23 11.75ZM18 8.625C18 7.60938 18.8203 6.75 19.875 6.75C20.8906 6.75 21.75 7.60938 21.75 8.625V11.75H18V8.625ZM24.875 18C24.875 19.0547 24.0156 19.875 23 19.875H16.75C15.6953 19.875 14.875 19.0547 14.875 18V14.25C14.875 13.2344 15.6953 12.375 16.75 12.375H23C24.0156 12.375 24.875 13.2344 24.875 14.25V18Z" fill="#292929"/>
</svg>
