<svg width="14" height="16" viewBox="0 0 14 16" fill="none" xmlns="http://www.w3.org/2000/svg">
<path d="M12.625 4.03119V1.49994H1.12891L7.21094 8.07416C7.28125 8.17963 7.28125 8.35541 7.21094 8.46088L1.12891 14.9999H12.625V12.4687C12.625 12.3281 12.7305 12.1874 12.9062 12.1874C13.0469 12.1874 13.1875 12.3281 13.1875 12.4687V15.2812C13.1875 15.457 13.0469 15.5624 12.9062 15.5624H0.496094C0.390625 15.5624 0.320312 15.5273 0.25 15.4218C0.214844 15.3163 0.214844 15.2109 0.285156 15.1054L6.61328 8.24994L0.285156 1.42963C0.214844 1.32416 0.214844 1.21869 0.25 1.11322C0.320312 1.00775 0.390625 0.937439 0.496094 0.937439H12.9062C13.0469 0.937439 13.1875 1.07806 13.1875 1.21869V4.03119C13.1875 4.20697 13.0469 4.31244 12.9062 4.31244C12.7305 4.31244 12.625 4.20697 12.625 4.03119Z" fill="#00358C"/>
</svg>
