<svg width="13" height="21" viewBox="0 0 13 21" fill="none" xmlns="http://www.w3.org/2000/svg">
<path d="M6.75684 3.03906C8.12402 3.11719 9.49121 3.39062 10.4678 3.625C10.6631 3.66406 10.7412 3.82031 10.7021 4.01562C10.6631 4.17188 10.5068 4.28906 10.3506 4.25C8.94434 3.89844 6.87402 3.50781 5.07715 3.66406C4.13965 3.74219 3.3584 3.9375 2.7334 4.32812C2.1084 4.71875 1.63965 5.34375 1.4834 6.20312C1.36621 6.86719 1.44434 7.375 1.63965 7.80469C1.83496 8.19531 2.18652 8.54688 2.69434 8.85938C3.63184 9.48438 5.03809 9.83594 6.4834 10.1875L6.52246 10.2266C7.96777 10.5781 9.45215 10.9688 10.5068 11.6328C11.0537 11.9844 11.4834 12.375 11.7568 12.9609C12.0303 13.5078 12.1084 14.1719 11.9912 14.9141C11.7178 16.2031 10.8193 17.0625 9.6084 17.5312C8.78809 17.8438 7.81152 18 6.75684 18V20.1875C6.75684 20.3828 6.60059 20.5 6.44434 20.5C6.24902 20.5 6.13184 20.3828 6.13184 20.1875V17.9609C5.74121 17.9609 5.38965 17.9219 5.03809 17.8828C3.94434 17.7266 2.34277 17.3359 0.975586 16.7891C0.819336 16.7109 0.741211 16.5156 0.819336 16.3594C0.897461 16.2031 1.09277 16.125 1.24902 16.2031C2.53809 16.75 4.06152 17.1016 5.11621 17.2578C6.75684 17.4922 8.24121 17.375 9.37402 16.9453C10.4678 16.5156 11.1709 15.8125 11.3662 14.7969C11.4834 14.1328 11.4053 13.625 11.21 13.2344C11.0146 12.8047 10.6631 12.4531 10.1553 12.1406C9.21777 11.5547 7.81152 11.2031 6.36621 10.8125H6.32715C4.88184 10.4219 3.39746 10.0703 2.34277 9.40625C1.7959 9.05469 1.36621 8.625 1.09277 8.07812C0.819336 7.53125 0.741211 6.86719 0.858398 6.08594C1.09277 5.03125 1.63965 4.28906 2.38184 3.82031C3.12402 3.35156 4.06152 3.11719 4.99902 3.03906C5.38965 3 5.74121 3 6.13184 3V0.8125C6.13184 0.65625 6.24902 0.5 6.44434 0.5C6.60059 0.5 6.75684 0.65625 6.75684 0.8125V3.03906Z" fill="#00358C"/>
</svg>
