<svg width="20" height="21" viewBox="0 0 20 21" fill="none" xmlns="http://www.w3.org/2000/svg">
<path d="M18.2036 3.78125L10.7036 0.65625C10.4692 0.578125 10.2348 0.539062 10.0004 0.539062C9.727 0.539062 9.49262 0.578125 9.25825 0.65625L1.75825 3.78125C1.05512 4.09375 0.625434 4.75781 0.625434 5.5C0.625434 15.5781 8.00825 20.5 9.96137 20.5C11.9145 20.5 19.3754 15.6562 19.3754 5.5C19.3754 4.75781 18.9067 4.09375 18.2036 3.78125ZM18.0864 5.53906C18.0864 14.3281 11.602 19.25 10.0004 19.25C8.32075 19.25 1.87543 14.2891 1.87543 5.5C1.87543 5.26562 1.99262 5.03125 2.227 4.95312L9.727 1.82812C9.80512 1.78906 9.88325 1.75 10.0004 1.75C10.0786 1.75 10.1567 1.78906 10.2348 1.82812L17.7348 4.95312C18.0864 5.10938 18.0864 5.42188 18.0864 5.53906ZM13.1254 7.60938C12.9301 7.60938 12.7739 7.64844 12.6567 7.76562L8.94575 11.5156L7.30512 9.875C7.18793 9.75781 7.03168 9.67969 6.87543 9.67969C6.48481 9.67969 6.25043 9.99219 6.25043 10.3047C6.25043 10.4609 6.2895 10.6172 6.40668 10.7734L8.51606 12.8438C8.63325 12.9609 8.7895 13 8.94575 13C9.102 13 9.25825 12.9609 9.37543 12.8438L13.5551 8.66406C13.6723 8.54688 13.7504 8.39062 13.7504 8.23438C13.7504 7.88281 13.477 7.60938 13.1254 7.60938Z" fill="#059602"/>
</svg>
