<svg width="41" height="41" viewBox="0 0 41 41" fill="none" xmlns="http://www.w3.org/2000/svg">
<path d="M38.5156 28.5L30 24.8281C28.9844 24.4375 27.8125 24.6719 27.1875 25.5312L23.75 29.75C18.2812 27.0938 13.9062 22.7188 11.25 17.25L15.4688 13.8125C16.3281 13.1875 16.5625 12.0156 16.1719 11L12.5 2.48438C12.0312 1.46875 10.8594 0.84375 9.6875 1.07812L1.875 2.95312C0.703125 3.1875 0 4.125 0 5.29688C0 24.9844 16.0156 41 35.7031 41C36.875 41 37.8125 40.2969 38.0469 39.125L39.9219 31.2344C40.1562 30.1406 39.5312 28.9688 38.5156 28.5ZM38.6719 31L36.875 38.8906C36.7188 39.4375 36.25 39.75 35.7031 39.75C16.7188 39.75 1.25 24.2812 1.25 5.29688C1.25 4.75 1.5625 4.28125 2.10938 4.125L10 2.32812C10.5469 2.17188 11.1719 2.48438 11.4062 3.03125L15 11.4688C15.2344 12.0156 15.0781 12.5625 14.6875 12.875L9.6875 16.9375C14.6094 27.4062 22.8906 30.7656 24.0625 31.3125L28.125 26.3125C28.4375 25.9219 29.0625 25.7656 29.5312 26L37.9688 29.5938C38.5156 29.8281 38.8281 30.4531 38.6719 31Z" fill="#292929"/>
</svg>
