<svg width="20" height="20" viewBox="0 0 20 20" fill="none" xmlns="http://www.w3.org/2000/svg">
<path d="M3 9.75C3 5.89453 6.11719 2.75 10 2.75C13.8555 2.75 17 5.89453 17 9.75C17 13.6328 13.8555 16.75 10 16.75C6.11719 16.75 3 13.6328 3 9.75ZM13.1445 8.54688C13.4453 8.24609 13.4453 7.78125 13.1445 7.48047C12.8438 7.17969 12.3789 7.17969 12.0781 7.48047L9.125 10.4336L7.89453 9.23047C7.59375 8.92969 7.12891 8.92969 6.82812 9.23047C6.52734 9.53125 6.52734 9.99609 6.82812 10.2969L8.57812 12.0469C8.87891 12.3477 9.34375 12.3477 9.64453 12.0469L13.1445 8.54688Z" fill="red"/>
</svg>
