<svg width="24" height="21" viewBox="0 0 24 21" fill="none" xmlns="http://www.w3.org/2000/svg">
<path d="M3.25 0.5C3.36719 0.5 3.48438 0.617188 3.52344 0.734375L3.79688 1.75H21.8828C22.7031 1.75 23.3281 2.57031 23.0938 3.35156L20.9844 10.8516C20.8281 11.3984 20.3594 11.75 19.7734 11.75H6.41406L7.23438 14.875H20.125C20.2812 14.875 20.4375 15.0312 20.4375 15.1875C20.4375 15.3828 20.2812 15.5 20.125 15.5H6.96094C6.84375 15.5 6.72656 15.4219 6.6875 15.2656L2.97656 1.125H1.0625C0.867188 1.125 0.75 1.00781 0.75 0.8125C0.75 0.65625 0.867188 0.5 1.0625 0.5H3.25ZM3.95312 2.375L6.25781 11.125H19.7734C20.0469 11.125 20.3203 10.9688 20.3984 10.6953L22.5078 3.19531C22.625 2.80469 22.3125 2.375 21.8828 2.375H3.95312ZM5.75 18.625C5.75 17.6094 6.57031 16.75 7.625 16.75C8.64062 16.75 9.5 17.6094 9.5 18.625C9.5 19.6797 8.64062 20.5 7.625 20.5C6.57031 20.5 5.75 19.6797 5.75 18.625ZM7.625 19.875C8.28906 19.875 8.875 19.3281 8.875 18.625C8.875 17.9609 8.28906 17.375 7.625 17.375C6.92188 17.375 6.375 17.9609 6.375 18.625C6.375 19.3281 6.92188 19.875 7.625 19.875ZM20.75 18.625C20.75 19.6797 19.8906 20.5 18.875 20.5C17.8203 20.5 17 19.6797 17 18.625C17 17.6094 17.8203 16.75 18.875 16.75C19.8906 16.75 20.75 17.6094 20.75 18.625ZM18.875 17.375C18.1719 17.375 17.625 17.9609 17.625 18.625C17.625 19.3281 18.1719 19.875 18.875 19.875C19.5391 19.875 20.125 19.3281 20.125 18.625C20.125 17.9609 19.5391 17.375 18.875 17.375Z" fill="#00358C"/>
</svg>
