<svg width="21" height="20" viewBox="0 0 21 20" fill="none" xmlns="http://www.w3.org/2000/svg">
<path d="M11.2754 12.375H10.5918V8.68359C10.5918 8.54688 10.5098 8.4375 10.4004 8.4375H9.52539C9.38867 8.4375 9.30664 8.54688 9.30664 8.65625C9.30664 8.79297 9.38867 8.875 9.52539 8.875H10.1543V12.375H9.52539C9.38867 12.375 9.30664 12.4844 9.30664 12.5938C9.30664 12.7305 9.38867 12.8125 9.52539 12.8125H11.2754C11.3848 12.8125 11.4941 12.7305 11.4941 12.5938C11.4941 12.4844 11.3848 12.375 11.2754 12.375ZM10.373 7.5625C10.6191 7.5625 10.8105 7.37109 10.8105 7.125C10.8105 6.90625 10.6191 6.6875 10.373 6.6875C10.1543 6.6875 9.93555 6.90625 9.93555 7.125C9.93555 7.37109 10.1543 7.5625 10.373 7.5625ZM10.4004 2.75C6.51758 2.75 3.40039 5.89453 3.40039 9.75C3.40039 13.6328 6.51758 16.75 10.4004 16.75C14.2559 16.75 17.4004 13.6328 17.4004 9.75C17.4004 5.89453 14.2559 2.75 10.4004 2.75ZM10.4004 16.3125C6.76367 16.3125 3.83789 13.3867 3.83789 9.75C3.83789 6.14062 6.76367 3.1875 10.4004 3.1875C14.0098 3.1875 16.9629 6.14062 16.9629 9.75C16.9629 13.3867 14.0098 16.3125 10.4004 16.3125Z" fill="#292929"/>
</svg>
