<svg width="20" height="20" viewBox="0 0 20 20" fill="none" xmlns="http://www.w3.org/2000/svg">
<path fill-rule="evenodd" clip-rule="evenodd" d="M9.35816 2.01034C7.08403 2.2484 5.24448 3.2096 3.82695 4.90045C2.90099 6.00496 2.29575 7.36532 2.06404 8.86288C1.97865 9.41468 1.97865 10.5908 2.06404 11.1426C2.41322 13.3993 3.6215 15.3369 5.47221 16.608C6.48501 17.3037 7.60144 17.7416 8.85731 17.9359C9.41094 18.0216 10.5862 18.0213 11.1371 17.9354C12.3801 17.7416 13.4046 17.3487 14.424 16.6748C17.2399 14.8133 18.5875 11.3467 17.7694 8.06842C17.4055 6.61006 16.6783 5.34614 15.5891 4.27935C14.3646 3.08003 12.8842 2.34166 11.1716 2.07607C10.8236 2.02212 9.65156 1.9796 9.35816 2.01034ZM10.7079 2.57841C12.4458 2.74739 14.0281 3.49609 15.2648 4.73455C17.2696 6.74215 17.9595 9.62539 17.0791 12.3171C16.7011 13.4728 16.1257 14.4095 15.2648 15.2704C14.4041 16.1311 13.4678 16.7064 12.3115 17.0848C10.7691 17.5897 9.22594 17.5893 7.67978 17.0837C6.52853 16.7073 5.55435 16.1046 4.69502 15.2373C2.28238 12.8024 1.84505 9.05351 3.63134 6.11957C4.21648 5.15848 5.06444 4.30233 6.05942 3.668C6.91637 3.12165 8.17953 2.6896 9.23727 2.58104C9.66279 2.53738 10.2745 2.53627 10.7079 2.57841ZM9.73812 5.33506C9.42023 5.41858 9.14114 5.64742 8.99527 5.9441C8.87865 6.18126 8.87565 6.62678 8.98908 6.86053C9.10756 7.10463 9.24801 7.25154 9.4851 7.37938C9.68534 7.48736 9.72811 7.49713 9.99719 7.49644C10.2467 7.49578 10.3173 7.4819 10.4672 7.40401C10.7275 7.26874 10.8359 7.16408 10.9666 6.92166C11.0738 6.72291 11.084 6.67856 11.084 6.41041C11.084 6.14206 11.0738 6.09802 10.9662 5.89833C10.7721 5.5384 10.4718 5.34504 10.0702 5.32131C9.94454 5.31388 9.79512 5.32006 9.73812 5.33506ZM10.2158 5.90486C10.5707 6.05315 10.6572 6.51842 10.3812 6.79445C10.1571 7.01848 9.83722 7.01848 9.61315 6.79445C9.18601 6.36727 9.65733 5.67153 10.2158 5.90486ZM9.73812 8.0984C9.42058 8.18182 9.14186 8.41017 8.99464 8.70744L8.90912 8.88015V11.5226V14.165L8.98708 14.3216C9.10984 14.568 9.24925 14.7132 9.4851 14.8404C9.68479 14.9481 9.72883 14.9582 9.99719 14.9582C10.2653 14.9582 10.3097 14.948 10.5084 14.8409C10.7501 14.7106 10.8541 14.6031 10.9922 14.3414L11.0853 14.165V11.5226V8.88015L10.9668 8.66167C10.7714 8.30137 10.4715 8.10835 10.0702 8.08465C9.94454 8.07723 9.79512 8.08341 9.73812 8.0984ZM10.2999 8.71338C10.3495 8.75045 10.4222 8.82371 10.4614 8.87618C10.5318 8.97051 10.5326 8.99994 10.5326 11.5226C10.5326 14.0453 10.5318 14.0747 10.4614 14.169C10.326 14.3503 10.2156 14.4068 9.99719 14.4068C9.77874 14.4068 9.66835 14.3503 9.53301 14.169C9.46286 14.0751 9.46165 14.0364 9.4517 11.6151C9.44618 10.2629 9.45067 9.10643 9.46172 9.04523C9.48659 8.90758 9.63101 8.73124 9.77094 8.66775C9.91076 8.60433 10.1855 8.62803 10.2999 8.71338Z" fill="black"/>
</svg>
