<svg width="42" height="20" viewBox="0 0 42 20" fill="none" xmlns="http://www.w3.org/2000/svg">
<path d="M13.5 3.9375C13.5 3.42969 13.8906 3 14.4375 3H30.0625C30.5703 3 31 3.42969 31 3.9375C31 4.48438 30.5703 4.875 30.0625 4.875H14.4375C13.8906 4.875 13.5 4.48438 13.5 3.9375ZM13.5 10.1875C13.5 9.67969 13.8906 9.25 14.4375 9.25H30.0625C30.5703 9.25 31 9.67969 31 10.1875C31 10.7344 30.5703 11.125 30.0625 11.125H14.4375C13.8906 11.125 13.5 10.7344 13.5 10.1875ZM30.0625 17.375H14.4375C13.8906 17.375 13.5 16.9844 13.5 16.4375C13.5 15.9297 13.8906 15.5 14.4375 15.5H30.0625C30.5703 15.5 31 15.9297 31 16.4375C31 16.9844 30.5703 17.375 30.0625 17.375Z" fill="#292929"/>
</svg>
