<svg width="20" height="19" viewBox="0 0 20 19" fill="none" xmlns="http://www.w3.org/2000/svg">
<path d="M5 10.75C5 11.4531 4.41406 12 3.75 12C3.04688 12 2.5 11.4531 2.5 10.75C2.5 10.0859 3.04688 9.5 3.75 9.5C4.41406 9.5 5 10.0859 5 10.75ZM3.75 10.125C3.39844 10.125 3.125 10.4375 3.125 10.75C3.125 11.1016 3.39844 11.375 3.75 11.375C4.0625 11.375 4.375 11.1016 4.375 10.75C4.375 10.4375 4.0625 10.125 3.75 10.125ZM15 10.75C15 10.0859 15.5469 9.5 16.25 9.5C16.9141 9.5 17.5 10.0859 17.5 10.75C17.5 11.4531 16.9141 12 16.25 12C15.5469 12 15 11.4531 15 10.75ZM16.25 11.375C16.5625 11.375 16.875 11.1016 16.875 10.75C16.875 10.4375 16.5625 10.125 16.25 10.125C15.8984 10.125 15.625 10.4375 15.625 10.75C15.625 11.1016 15.8984 11.375 16.25 11.375ZM2.26562 7.3125L3.55469 2.82031C3.86719 1.60938 5 0.75 6.25 0.75H13.7109C14.9609 0.75 16.0938 1.60938 16.4062 2.82031L17.6953 7.3125C19.0625 7.89844 20 9.22656 20 10.75V17.9375C20 18.1328 19.8438 18.25 19.6875 18.25C19.4922 18.25 19.375 18.1328 19.375 17.9375V15.125H0.625V17.9375C0.625 18.1328 0.46875 18.25 0.3125 18.25C0.117188 18.25 0 18.1328 0 17.9375V10.75C0 9.22656 0.898438 7.89844 2.26562 7.3125ZM2.96875 7.07812C3.20312 7.03906 3.47656 7 3.75 7H16.25C16.4844 7 16.7578 7.03906 16.9922 7.07812L15.8203 2.97656C15.5469 2.03906 14.6875 1.375 13.7109 1.375H6.25C5.27344 1.375 4.41406 2.03906 4.14062 2.97656L2.96875 7.07812ZM16.25 7.625H3.75C1.99219 7.625 0.625 9.03125 0.625 10.75V14.5H19.375V10.75C19.375 9.03125 17.9688 7.625 16.25 7.625Z" fill="#00358C"/>
</svg>
