<svg width="20" height="20" viewBox="0 0 20 20" fill="none" xmlns="http://www.w3.org/2000/svg">
<path d="M10.9375 11.125H6.5625C6.36719 11.125 6.25 11.2812 6.25 11.4375C6.25 11.6328 6.36719 11.75 6.5625 11.75H10.9375C11.0938 11.75 11.25 11.6328 11.25 11.4375C11.25 11.2812 11.0938 11.125 10.9375 11.125ZM18.75 1.75H5C4.29688 1.75 3.75 2.33594 3.75 3V17.0625C3.75 17.9609 3.04688 18.625 2.1875 18.625C1.28906 18.625 0.625 17.9609 0.625 17.0625V5.8125C0.625 5.65625 0.46875 5.5 0.3125 5.5C0.117188 5.5 0 5.65625 0 5.8125V17.0625C0 18.2734 0.976562 19.25 2.1875 19.25H17.5C18.8672 19.25 20 18.1562 20 16.75V3C20 2.33594 19.4141 1.75 18.75 1.75ZM19.375 16.75C19.375 17.8047 18.5156 18.625 17.5 18.625H3.71094C4.10156 18.2344 4.375 17.6875 4.375 17.0625V3C4.375 2.6875 4.64844 2.375 5 2.375H18.75C19.0625 2.375 19.375 2.6875 19.375 3V16.75ZM10.9375 13.625H6.5625C6.36719 13.625 6.25 13.7812 6.25 13.9375C6.25 14.1328 6.36719 14.25 6.5625 14.25H10.9375C11.0938 14.25 11.25 14.1328 11.25 13.9375C11.25 13.7812 11.0938 13.625 10.9375 13.625ZM17.1875 13.625H12.8125C12.6172 13.625 12.5 13.7812 12.5 13.9375C12.5 14.1328 12.6172 14.25 12.8125 14.25H17.1875C17.3438 14.25 17.5 14.1328 17.5 13.9375C17.5 13.7812 17.3438 13.625 17.1875 13.625ZM16.875 4.25H6.875C6.52344 4.25 6.25 4.5625 6.25 4.875V8.625C6.25 8.97656 6.52344 9.25 6.875 9.25H16.875C17.1875 9.25 17.5 8.97656 17.5 8.625V4.875C17.5 4.5625 17.1875 4.25 16.875 4.25ZM16.875 8.625H6.875V4.875H16.875V8.625ZM17.1875 11.125H12.8125C12.6172 11.125 12.5 11.2812 12.5 11.4375C12.5 11.6328 12.6172 11.75 12.8125 11.75H17.1875C17.3438 11.75 17.5 11.6328 17.5 11.4375C17.5 11.2812 17.3438 11.125 17.1875 11.125Z" fill="#292929"/>
</svg>
